<svg width="1200" height="750" viewBox="0 0 1200 750" xmlns="http://www.w3.org/2000/svg">
  <defs>
    <linearGradient id="darkC" x1="0" y1="0" x2="1" y2="1">
      <stop offset="0%" stop-color="#090909"/>
      <stop offset="100%" stop-color="#111111"/>
    </linearGradient>
  </defs>
  <rect width="1200" height="750" fill="url(#darkC)"/>

  <!-- Thick border frame -->
  <rect x="20" y="20" width="1160" height="710" fill="none" stroke="#2a2a2a" stroke-width="6"/>

  <!-- Sidebar -->
  <rect x="36" y="36" width="240" height="678" fill="#0d0d0d" stroke="#2a2a2a" stroke-width="4"/>
  <text x="56" y="72" fill="#b6ff2b" font-family="Archivo, Arial" font-size="18" font-weight="700">LILIT OPS</text>
  <rect x="56" y="100" width="200" height="48" fill="#141414" stroke="#2a2a2a" stroke-width="3"/>
  <text x="74" y="130" fill="#ffffff" font-family="Space Mono, monospace" font-size="12">APOLLO</text>
  <rect x="56" y="160" width="200" height="48" fill="#0d0d0d" stroke="#2a2a2a" stroke-width="3"/>
  <text x="74" y="190" fill="#8d8d8d" font-family="Space Mono, monospace" font-size="12">ARTEMIS</text>
  <rect x="56" y="220" width="200" height="48" fill="#0d0d0d" stroke="#2a2a2a" stroke-width="3"/>
  <text x="74" y="250" fill="#8d8d8d" font-family="Space Mono, monospace" font-size="12">VOYAGER</text>
  <rect x="56" y="662" width="200" height="40" fill="#b6ff2b" stroke="#2a2a2a" stroke-width="3"/>
  <text x="88" y="688" fill="#0a0a0a" font-family="Archivo, Arial" font-size="12" font-weight="700">+ NEW PROJECT</text>

  <!-- Main area -->
  <rect x="294" y="36" width="870" height="678" fill="#0b0b0b" stroke="#2a2a2a" stroke-width="4"/>

  <!-- Header -->
  <rect x="308" y="52" width="842" height="56" fill="#141414" stroke="#2a2a2a" stroke-width="3"/>
  <text x="328" y="86" fill="#ffffff" font-family="Archivo, Arial" font-size="14" font-weight="700">APOLLO / CREW ROOM</text>
  <text x="530" y="86" fill="#8d8d8d" font-family="Space Mono, monospace" font-size="11">/Users/vladimir/ai/crew</text>
  <rect x="1020" y="64" width="110" height="32" fill="#ff7a1a" stroke="#2a2a2a" stroke-width="3"/>
  <text x="1046" y="86" fill="#0a0a0a" font-family="Archivo, Arial" font-size="12" font-weight="700">RUN</text>

  <!-- Message area -->
  <rect x="308" y="124" width="560" height="552" fill="#0d0d0d" stroke="#2a2a2a" stroke-width="3"/>
  <rect x="326" y="146" width="520" height="90" fill="#141414" stroke="#2a2a2a" stroke-width="3"/>
  <text x="344" y="176" fill="#b6ff2b" font-family="Space Mono, monospace" font-size="12">STATUS: PIPELINE PASSED</text>
  <text x="344" y="200" fill="#ffffff" font-family="Space Mono, monospace" font-size="11">QA: add loading skeleton</text>

  <rect x="386" y="248" width="460" height="80" fill="#b6ff2b" stroke="#2a2a2a" stroke-width="3"/>
  <text x="406" y="286" fill="#0a0a0a" font-family="Space Mono, monospace" font-size="12" font-weight="700">USER: IMPROVE ONBOARDING</text>

  <rect x="326" y="338" width="520" height="100" fill="#141414" stroke="#2a2a2a" stroke-width="3"/>
  <text x="344" y="372" fill="#ffffff" font-family="Space Mono, monospace" font-size="11">MARCUS: REDUCE COMPLEXITY</text>
  <text x="344" y="398" fill="#8d8d8d" font-family="Space Mono, monospace" font-size="11">KAI: REMOVE DATE-FNS</text>

  <!-- Log panel -->
  <rect x="884" y="124" width="266" height="552" fill="#0d0d0d" stroke="#2a2a2a" stroke-width="3"/>
  <text x="904" y="156" fill="#ff7a1a" font-family="Space Mono, monospace" font-size="11" font-weight="700">LOG</text>
  <text x="904" y="182" fill="#8d8d8d" font-family="Space Mono, monospace" font-size="10">[KAI] TESTS...</text>
  <text x="904" y="206" fill="#ff7a1a" font-family="Space Mono, monospace" font-size="10">[RIVER] 1 FAIL</text>
  <text x="904" y="230" fill="#b6ff2b" font-family="Space Mono, monospace" font-size="10">[RIVER] PASS</text>

  <!-- Input bar -->
  <rect x="308" y="682" width="560" height="32" fill="#141414" stroke="#2a2a2a" stroke-width="3"/>
  <text x="326" y="703" fill="#8d8d8d" font-family="Space Mono, monospace" font-size="10">TELL LILIT WHAT TO BUILD...</text>
  <rect x="804" y="686" width="64" height="24" fill="#b6ff2b" stroke="#2a2a2a" stroke-width="3"/>
  <text x="820" y="703" fill="#0a0a0a" font-family="Archivo, Arial" font-size="10" font-weight="700">SEND</text>
</svg>
